<mxfile host="app.diagrams.net" modified="2021-01-09T05:08:39.537Z" agent="5.0 (Windows NT 10.0) AppleWebKit/537.36 (KHTML, like Gecko) Chrome/87.0.4280.60 YaBrowser/20.12.0.966 Yowser/2.5 Safari/537.36" etag="3VWhKKHqwQ5YDuV0Qf17" version="14.1.8" type="github">
  <diagram id="C5RBs43oDa-KdzZeNtuy" name="Page-1">
    <mxGraphModel dx="1347" dy="789" grid="1" gridSize="10" guides="1" tooltips="1" connect="1" arrows="1" fold="1" page="1" pageScale="1" pageWidth="827" pageHeight="1169" math="0" shadow="0">
      <root>
        <mxCell id="WIyWlLk6GJQsqaUBKTNV-0" />
        <mxCell id="WIyWlLk6GJQsqaUBKTNV-1" parent="WIyWlLk6GJQsqaUBKTNV-0" />
        <mxCell id="EenwrytQolQ6xogCsHIw-5" style="edgeStyle=orthogonalEdgeStyle;rounded=0;orthogonalLoop=1;jettySize=auto;html=1;" edge="1" parent="WIyWlLk6GJQsqaUBKTNV-1" source="EenwrytQolQ6xogCsHIw-3" target="EenwrytQolQ6xogCsHIw-4">
          <mxGeometry relative="1" as="geometry">
            <Array as="points">
              <mxPoint x="414" y="140" />
              <mxPoint x="120" y="140" />
            </Array>
          </mxGeometry>
        </mxCell>
        <mxCell id="EenwrytQolQ6xogCsHIw-33" style="edgeStyle=orthogonalEdgeStyle;rounded=0;orthogonalLoop=1;jettySize=auto;html=1;" edge="1" parent="WIyWlLk6GJQsqaUBKTNV-1" source="EenwrytQolQ6xogCsHIw-3" target="EenwrytQolQ6xogCsHIw-26">
          <mxGeometry relative="1" as="geometry" />
        </mxCell>
        <mxCell id="EenwrytQolQ6xogCsHIw-3" value="Форма?" style="rounded=1;whiteSpace=wrap;html=1;" vertex="1" parent="WIyWlLk6GJQsqaUBKTNV-1">
          <mxGeometry x="369" y="100" width="90" height="30" as="geometry" />
        </mxCell>
        <mxCell id="EenwrytQolQ6xogCsHIw-8" style="edgeStyle=orthogonalEdgeStyle;rounded=0;orthogonalLoop=1;jettySize=auto;html=1;entryX=0.5;entryY=0;entryDx=0;entryDy=0;" edge="1" parent="WIyWlLk6GJQsqaUBKTNV-1" source="EenwrytQolQ6xogCsHIw-4" target="EenwrytQolQ6xogCsHIw-22">
          <mxGeometry relative="1" as="geometry">
            <mxPoint x="120" y="270" as="targetPoint" />
          </mxGeometry>
        </mxCell>
        <mxCell id="EenwrytQolQ6xogCsHIw-4" value="" style="rhombus;whiteSpace=wrap;html=1;strokeWidth=3;" vertex="1" parent="WIyWlLk6GJQsqaUBKTNV-1">
          <mxGeometry x="100" y="170" width="40" height="40" as="geometry" />
        </mxCell>
        <mxCell id="EenwrytQolQ6xogCsHIw-17" style="edgeStyle=orthogonalEdgeStyle;rounded=0;orthogonalLoop=1;jettySize=auto;html=1;" edge="1" parent="WIyWlLk6GJQsqaUBKTNV-1" source="EenwrytQolQ6xogCsHIw-12" target="EenwrytQolQ6xogCsHIw-14">
          <mxGeometry relative="1" as="geometry" />
        </mxCell>
        <mxCell id="EenwrytQolQ6xogCsHIw-20" value="нет" style="edgeLabel;html=1;align=center;verticalAlign=middle;resizable=0;points=[];" vertex="1" connectable="0" parent="EenwrytQolQ6xogCsHIw-17">
          <mxGeometry x="0.2522" relative="1" as="geometry">
            <mxPoint as="offset" />
          </mxGeometry>
        </mxCell>
        <mxCell id="EenwrytQolQ6xogCsHIw-19" style="edgeStyle=orthogonalEdgeStyle;rounded=0;orthogonalLoop=1;jettySize=auto;html=1;" edge="1" parent="WIyWlLk6GJQsqaUBKTNV-1" source="EenwrytQolQ6xogCsHIw-12" target="EenwrytQolQ6xogCsHIw-18">
          <mxGeometry relative="1" as="geometry" />
        </mxCell>
        <mxCell id="EenwrytQolQ6xogCsHIw-21" value="да" style="edgeLabel;html=1;align=center;verticalAlign=middle;resizable=0;points=[];" vertex="1" connectable="0" parent="EenwrytQolQ6xogCsHIw-19">
          <mxGeometry x="0.184" y="1" relative="1" as="geometry">
            <mxPoint as="offset" />
          </mxGeometry>
        </mxCell>
        <mxCell id="EenwrytQolQ6xogCsHIw-12" value="Перечеркиевание?" style="rounded=1;whiteSpace=wrap;html=1;" vertex="1" parent="WIyWlLk6GJQsqaUBKTNV-1">
          <mxGeometry x="52.5" y="380" width="135" height="30" as="geometry" />
        </mxCell>
        <mxCell id="EenwrytQolQ6xogCsHIw-14" value="&lt;span style=&quot;box-sizing: inherit ; border: 0px ; font-family: &amp;#34;open sans&amp;#34; , &amp;#34;arial&amp;#34; , sans-serif ; font-size: 14px ; font-weight: 700 ; margin: 0px ; outline: 0px ; padding: 0px ; vertical-align: baseline ; color: rgb(51 , 51 , 51) ; background-color: rgb(244 , 244 , 244)&quot;&gt;Главная дорога&lt;/span&gt;" style="rounded=1;whiteSpace=wrap;html=1;strokeWidth=3;direction=south;" vertex="1" parent="WIyWlLk6GJQsqaUBKTNV-1">
          <mxGeometry x="10" y="470" width="110" height="120" as="geometry" />
        </mxCell>
        <mxCell id="EenwrytQolQ6xogCsHIw-18" value="&lt;span style=&quot;box-sizing: inherit ; border: 0px ; font-family: &amp;#34;open sans&amp;#34; , &amp;#34;arial&amp;#34; , sans-serif ; font-size: 14px ; font-weight: 700 ; margin: 0px ; outline: 0px ; padding: 0px ; vertical-align: baseline ; color: rgb(51 , 51 , 51) ; background-color: rgb(244 , 244 , 244)&quot;&gt;Конец главной дороги&lt;/span&gt;" style="rounded=1;whiteSpace=wrap;html=1;strokeWidth=3;direction=south;" vertex="1" parent="WIyWlLk6GJQsqaUBKTNV-1">
          <mxGeometry x="130" y="470" width="110" height="120" as="geometry" />
        </mxCell>
        <mxCell id="EenwrytQolQ6xogCsHIw-31" style="edgeStyle=orthogonalEdgeStyle;rounded=0;orthogonalLoop=1;jettySize=auto;html=1;" edge="1" parent="WIyWlLk6GJQsqaUBKTNV-1" source="EenwrytQolQ6xogCsHIw-22" target="EenwrytQolQ6xogCsHIw-29">
          <mxGeometry relative="1" as="geometry" />
        </mxCell>
        <mxCell id="EenwrytQolQ6xogCsHIw-22" value="Цвет?" style="rounded=1;whiteSpace=wrap;html=1;" vertex="1" parent="WIyWlLk6GJQsqaUBKTNV-1">
          <mxGeometry x="75" y="230" width="90" height="30" as="geometry" />
        </mxCell>
        <mxCell id="EenwrytQolQ6xogCsHIw-35" style="edgeStyle=orthogonalEdgeStyle;rounded=0;orthogonalLoop=1;jettySize=auto;html=1;" edge="1" parent="WIyWlLk6GJQsqaUBKTNV-1" source="EenwrytQolQ6xogCsHIw-26" target="EenwrytQolQ6xogCsHIw-34">
          <mxGeometry relative="1" as="geometry" />
        </mxCell>
        <mxCell id="EenwrytQolQ6xogCsHIw-26" value="" style="triangle;whiteSpace=wrap;html=1;strokeWidth=3;rotation=90;" vertex="1" parent="WIyWlLk6GJQsqaUBKTNV-1">
          <mxGeometry x="250" y="160" width="30" height="37.5" as="geometry" />
        </mxCell>
        <mxCell id="EenwrytQolQ6xogCsHIw-28" value="&lt;span style=&quot;box-sizing: inherit ; border: 0px ; font-family: &amp;#34;open sans&amp;#34; , &amp;#34;arial&amp;#34; , sans-serif ; font-size: 14px ; font-weight: 700 ; margin: 0px ; outline: 0px ; padding: 0px ; vertical-align: baseline ; color: rgb(51 , 51 , 51) ; background-color: rgb(244 , 244 , 244)&quot;&gt;Уступите дорогу&lt;/span&gt;" style="rounded=1;whiteSpace=wrap;html=1;strokeWidth=3;direction=south;" vertex="1" parent="WIyWlLk6GJQsqaUBKTNV-1">
          <mxGeometry x="210" y="340" width="110" height="120" as="geometry" />
        </mxCell>
        <mxCell id="EenwrytQolQ6xogCsHIw-32" style="edgeStyle=orthogonalEdgeStyle;rounded=0;orthogonalLoop=1;jettySize=auto;html=1;" edge="1" parent="WIyWlLk6GJQsqaUBKTNV-1" source="EenwrytQolQ6xogCsHIw-29" target="EenwrytQolQ6xogCsHIw-12">
          <mxGeometry relative="1" as="geometry" />
        </mxCell>
        <mxCell id="EenwrytQolQ6xogCsHIw-29" value="" style="rhombus;whiteSpace=wrap;html=1;strokeWidth=3;fillColor=#e3c800;strokeColor=#B09500;fontColor=#ffffff;" vertex="1" parent="WIyWlLk6GJQsqaUBKTNV-1">
          <mxGeometry x="102" y="300" width="36" height="40" as="geometry" />
        </mxCell>
        <mxCell id="EenwrytQolQ6xogCsHIw-39" style="edgeStyle=orthogonalEdgeStyle;rounded=0;orthogonalLoop=1;jettySize=auto;html=1;entryX=0;entryY=0.5;entryDx=0;entryDy=0;" edge="1" parent="WIyWlLk6GJQsqaUBKTNV-1" source="EenwrytQolQ6xogCsHIw-34" target="EenwrytQolQ6xogCsHIw-37">
          <mxGeometry relative="1" as="geometry" />
        </mxCell>
        <mxCell id="EenwrytQolQ6xogCsHIw-34" value="Красная каемка?" style="rounded=1;whiteSpace=wrap;html=1;" vertex="1" parent="WIyWlLk6GJQsqaUBKTNV-1">
          <mxGeometry x="220" y="220" width="90" height="30" as="geometry" />
        </mxCell>
        <mxCell id="EenwrytQolQ6xogCsHIw-40" style="edgeStyle=orthogonalEdgeStyle;rounded=0;orthogonalLoop=1;jettySize=auto;html=1;" edge="1" parent="WIyWlLk6GJQsqaUBKTNV-1" source="EenwrytQolQ6xogCsHIw-37" target="EenwrytQolQ6xogCsHIw-28">
          <mxGeometry relative="1" as="geometry" />
        </mxCell>
        <mxCell id="EenwrytQolQ6xogCsHIw-37" value="" style="triangle;whiteSpace=wrap;html=1;strokeWidth=3;rotation=90;strokeColor=#B20000;fontColor=#ffffff;fillColor=#FFFFFF;" vertex="1" parent="WIyWlLk6GJQsqaUBKTNV-1">
          <mxGeometry x="250" y="270" width="30" height="37.5" as="geometry" />
        </mxCell>
        <mxCell id="EenwrytQolQ6xogCsHIw-42" value="" style="rounded=0;whiteSpace=wrap;html=1;strokeWidth=3;fillColor=#e51400;direction=west;strokeColor=#B20000;fontColor=#ffffff;" vertex="1" parent="WIyWlLk6GJQsqaUBKTNV-1">
          <mxGeometry x="470" y="240" width="150" height="60" as="geometry" />
        </mxCell>
        <mxCell id="EenwrytQolQ6xogCsHIw-45" value="" style="rounded=0;whiteSpace=wrap;html=1;strokeWidth=3;fillColor=#e51400;rotation=45;direction=west;strokeColor=#B20000;fontColor=#ffffff;" vertex="1" parent="WIyWlLk6GJQsqaUBKTNV-1">
          <mxGeometry x="470.61" y="240.61" width="150" height="60" as="geometry" />
        </mxCell>
        <mxCell id="EenwrytQolQ6xogCsHIw-46" value="" style="rounded=0;whiteSpace=wrap;html=1;strokeWidth=3;fillColor=#e51400;rotation=45;direction=north;strokeColor=#B20000;fontColor=#ffffff;" vertex="1" parent="WIyWlLk6GJQsqaUBKTNV-1">
          <mxGeometry x="515.61" y="194.61" width="60" height="150" as="geometry" />
        </mxCell>
        <mxCell id="EenwrytQolQ6xogCsHIw-47" value="" style="rounded=0;whiteSpace=wrap;html=1;strokeWidth=3;fillColor=#e51400;direction=north;strokeColor=#B20000;fontColor=#ffffff;" vertex="1" parent="WIyWlLk6GJQsqaUBKTNV-1">
          <mxGeometry x="515" y="194.61" width="60" height="150" as="geometry" />
        </mxCell>
      </root>
    </mxGraphModel>
  </diagram>
</mxfile>
